<?xml version="1.0" encoding="UTF-8" standalone="no"?>
<svg
   width="282.56805"
   zoomAndPan="magnify"
   viewBox="0 0 211.92604 30.557389"
   height="40.743187"
   preserveAspectRatio="xMidYMid meet"
   version="1.0"
   id="svg62"
   sodipodi:docname="c4f3bec87ae774e9aa2861cd8bc5281c.svg"
   xmlns:inkscape="http://www.inkscape.org/namespaces/inkscape"
   xmlns:sodipodi="http://sodipodi.sourceforge.net/DTD/sodipodi-0.dtd"
   xmlns="http://www.w3.org/2000/svg"
   xmlns:svg="http://www.w3.org/2000/svg">
  <sodipodi:namedview
     id="namedview64"
     pagecolor="#ffffff"
     bordercolor="#666666"
     borderopacity="1.0"
     inkscape:pageshadow="2"
     inkscape:pageopacity="0.0"
     inkscape:pagecheckerboard="0" />
  <defs
     id="defs4">
    <g
       id="g2" />
  </defs>
  <g
     fill="#ff3131"
     fill-opacity="1"
     id="g12"
     transform="translate(-81.001163,-160.63651)">
    <g
       transform="translate(82.532413,191.25399)"
       id="g10">
      <g
         id="g8">
        <path
           d="m 22.328125,-1.484375 -4.421875,-15.59375 h -0.140625 l -2.3125,16.046875 -9.1875,0.609375 L -1.53125,-26 l 8.6875,-0.578125 3.953125,14.546875 0.15625,-0.01563 L 13.25,-26.98438 21.484375,-27.51563 25.578125,-13 h 0.15625 l 1.828125,-14.921875 8.3125,-0.5625 -4.359375,26.390625 z m 0,0"
           id="path6" />
      </g>
    </g>
  </g>
  <g
     fill="#ff3131"
     fill-opacity="1"
     id="g20"
     transform="translate(-81.001163,-160.63651)">
    <g
       transform="translate(120.01491,188.82876)"
       id="g18">
      <g
         id="g16">
        <path
           d="m 1.71875,-26.140625 22.515625,-0.9375 0.25,6.25 -14.15625,0.578125 0.15625,3.59375 12.109375,-0.5 0.25,5.984375 -12.109375,0.5 0.15625,3.953125 14.421875,-0.59375 0.265625,6.25 -22.78125,0.953125 z m 0,0"
           id="path14" />
      </g>
    </g>
  </g>
  <g
     fill="#ff3131"
     fill-opacity="1"
     id="g28"
     transform="translate(-81.001163,-160.63651)">
    <g
       transform="translate(147.06705,187.69072)"
       id="g26">
      <g
         id="g24">
        <path
           d="m 19.625,-26.453125 c 1.3125,-0.01953 2.519531,0.230469 3.625,0.75 1.113281,0.523437 2,1.265625 2.65625,2.234375 0.664062,0.96875 1.007812,2.058594 1.03125,3.265625 0.0625,3.210937 -1.34375,5.261719 -4.21875,6.15625 v 0.15625 c 3.3125,0.6875 5.003906,2.824219 5.078125,6.40625 0.03125,1.355469 -0.277344,2.570313 -0.921875,3.640625 -0.648438,1.0625 -1.546875,1.898438 -2.703125,2.5 C 23.023438,-0.75 21.757812,-0.4375 20.375,-0.40625 L 2.796875,-0.0625 2.28125,-26.109375 Z m -8.765625,10.328125 5.75,-0.125 c 0.550781,-0.0078 1.003906,-0.210938 1.359375,-0.609375 0.363281,-0.394531 0.539062,-0.882813 0.53125,-1.46875 v -0.375 c -0.01172,-0.550781 -0.214844,-1.019531 -0.609375,-1.40625 -0.386719,-0.382813 -0.84375,-0.570313 -1.375,-0.5625 l -5.75,0.125 z m 0.1875,9.84375 6.359375,-0.125 c 0.550781,-0.00781 1.003906,-0.210938 1.359375,-0.609375 0.363281,-0.40625 0.539063,-0.898437 0.53125,-1.484375 l -0.01563,-0.375 c -0.01172,-0.570312 -0.203125,-1.050781 -0.578125,-1.4375 -0.367187,-0.382812 -0.824219,-0.570312 -1.375,-0.5625 l -6.359375,0.125 z m 0,0"
           id="path22" />
      </g>
    </g>
  </g>
  <g
     fill="#ff3131"
     fill-opacity="1"
     id="g36"
     transform="translate(-81.001163,-160.63651)">
    <g
       transform="translate(176.24745,187.1053)"
       id="g34">
      <g
         id="g32">
        <path
           d="m 15.28125,-26.46875 c 3.863281,0.01172 6.914062,0.984375 9.15625,2.921875 2.238281,1.9375 3.351562,4.699219 3.34375,8.28125 l -7.984375,-0.01563 c 0.0078,-1.519531 -0.386719,-2.71875 -1.1875,-3.59375 -0.792969,-0.882812 -1.917969,-1.332031 -3.375,-1.34375 -1.699219,0 -2.945313,0.53125 -3.734375,1.59375 -0.792969,1.054688 -1.195312,2.527344 -1.203125,4.421875 v 2.421875 c -0.01172,1.867188 0.378906,3.335938 1.171875,4.40625 0.789062,1.074219 2.007812,1.609375 3.65625,1.609375 1.613281,0.011719 2.835938,-0.398437 3.671875,-1.234375 0.832031,-0.832031 1.253906,-2.003906 1.265625,-3.515625 L 27.78125,-10.5 c -0.01172,3.5625 -1.109375,6.289062 -3.296875,8.171875 -2.1875,1.886719 -5.277344,2.820313 -9.265625,2.8125 C 10.78125,0.472656 7.421875,-0.664062 5.140625,-2.9375 2.859375,-5.21875 1.722656,-8.582031 1.734375,-13.03125 c 0.00781,-4.4375 1.160156,-7.785156 3.453125,-10.046875 2.289062,-2.269531 5.65625,-3.398437 10.09375,-3.390625 z m 0,0"
           id="path30" />
      </g>
    </g>
  </g>
  <g
     fill="#ff3131"
     fill-opacity="1"
     id="g44"
     transform="translate(-81.001163,-160.63651)">
    <g
       transform="translate(205.42462,187.16006)"
       id="g42">
      <g
         id="g40">
        <path
           d="m 16.421875,-26.078125 c 4.488281,0.117187 7.925781,1.351563 10.3125,3.703125 2.382813,2.355469 3.519531,5.726562 3.40625,10.109375 -0.105469,4.398437 -1.414063,7.714844 -3.921875,9.953125 -2.5,2.2304688 -5.996094,3.285156 -10.484375,3.171875 -4.492187,-0.117187 -7.929687,-1.34375 -10.3125,-3.6875 -2.375,-2.34375 -3.507813,-5.726563 -3.390625,-10.15625 0.113281,-4.414063 1.414062,-7.726563 3.90625,-9.9375 2.5,-2.21875 5.992188,-3.269531 10.484375,-3.15625 z m -0.15625,6.234375 c -1.792969,-0.05078 -3.167969,0.453125 -4.125,1.515625 -0.960937,1.0625 -1.464844,2.515625 -1.515625,4.359375 l -0.0625,2.421875 c -0.04297,1.84375 0.382812,3.320313 1.28125,4.421875 0.90625,1.105469 2.253906,1.683594 4.046875,1.734375 1.789063,0.042969 3.175781,-0.460937 4.15625,-1.515625 0.976563,-1.0625 1.488281,-2.515625 1.53125,-4.359375 l 0.0625,-2.421875 c 0.05078,-1.84375 -0.386719,-3.316406 -1.3125,-4.421875 -0.917969,-1.113281 -2.273437,-1.691406 -4.0625,-1.734375 z m 0,0"
           id="path38" />
      </g>
    </g>
  </g>
  <g
     fill="#ff3131"
     fill-opacity="1"
     id="g52"
     transform="translate(-81.001163,-160.63651)">
    <g
       transform="translate(236.67299,187.96754)"
       id="g50">
      <g
         id="g48">
        <path
           d="m 15.328125,-25.328125 c 9.101563,0.4375 13.445313,4.992187 13.03125,13.65625 C 27.929688,-2.992188 23.164062,1.125 14.0625,0.6875 L 2.796875,0.140625 4.0625,-25.875 Z m -3.875,19.625 2.765625,0.125 c 3.5,0.179687 5.34375,-1.609375 5.53125,-5.359375 l 0.109375,-2.265625 c 0.1875,-3.75 -1.46875,-5.710937 -4.96875,-5.890625 l -2.765625,-0.125 z m 0,0"
           id="path46" />
      </g>
    </g>
  </g>
  <g
     fill="#ff3131"
     fill-opacity="1"
     id="g60"
     transform="translate(-81.001163,-160.63651)">
    <g
       transform="translate(265.83346,189.39703)"
       id="g58">
      <g
         id="g56">
        <path
           d="m 4.625,-25.78125 22.46875,1.578125 -0.4375,6.234375 -14.125,-1 -0.25,3.59375 12.078125,0.859375 L 23.9375,-8.546875 11.859375,-9.40625 11.578125,-5.453125 25.96875,-4.4375 25.53125,1.796875 2.796875,0.203125 Z m 0,0"
           id="path54" />
      </g>
    </g>
  </g>
</svg>
